<svg width="216" height="49" fill="none" xmlns="http://www.w3.org/2000/svg"><g clip-path="url(#clip0_73_81)" stroke="#000"><path d="M27.5 5L49 46H6L27.5 5z" stroke-width="3"/><path d="M27.5 0L55 49H0L27.5 0z"/><path d="M27.667 25.005c3.834.08 7.243 1.114 9.654 2.674 2.425 1.568 3.72 3.575 3.678 5.605-.042 2.031-1.42 3.982-3.909 5.447-2.473 1.456-5.923 2.345-9.757 2.264-3.834-.08-7.243-1.114-9.654-2.673-2.425-1.569-3.72-3.576-3.678-5.606.042-2.031 1.42-3.981 3.909-5.446 2.473-1.457 5.922-2.346 9.757-2.265z" stroke-width="3"/></g><path d="M70 30.04c.112 0 .224-.112.336-.336.112-.224.168-.592.168-1.104V17.08c0-.512-.056-.872-.168-1.08-.112-.224-.224-.344-.336-.36h7.536c1.424 0 2.608.136 3.552.408.96.272 1.728.648 2.304 1.128a4.88 4.88 0 011.344 1.656c.304.608.504 1.256.6 1.944a12.398 12.398 0 010 4.08 6.138 6.138 0 01-.624 1.944c-.304.608-.752 1.16-1.344 1.656-.576.48-1.344.864-2.304 1.152-.944.288-2.12.432-3.528.432H70zm4.152-1.944h2.952c2.048 0 3.512-.4 4.392-1.2.88-.8 1.32-2.088 1.32-3.864V22.6c0-1.248-.176-2.232-.528-2.952-.352-.736-.944-1.256-1.776-1.56-.832-.32-1.968-.48-3.408-.48h-2.952c-.464 0-.744.032-.84.096-.08.048-.12.24-.12.576v9.096c0 .352.04.56.12.624.096.064.376.096.84.096zm14.999-11.592c-.464 0-.824-.128-1.08-.384a1.327 1.327 0 01-.384-.936c0-.368.12-.68.36-.936.256-.256.624-.384 1.104-.384.48 0 .84.128 1.08.384.256.256.384.568.384.936 0 .352-.128.664-.384.936-.256.256-.616.384-1.08.384zM87.687 30.04c.112 0 .216-.112.312-.336.112-.224.168-.592.168-1.104v-8.352c0-.512-.056-.872-.168-1.08-.096-.224-.2-.344-.312-.36h2.928V28.6c0 .512.048.88.144 1.104.112.224.224.336.336.336h-3.408zm11.317 5.856c-1.392 0-2.608-.136-3.648-.408-1.04-.272-1.784-.536-2.232-.792l.48-2.16v-.696c.224.336.576.688 1.056 1.056.48.368 1.08.68 1.8.936s1.536.384 2.448.384c1.072 0 1.864-.176 2.376-.528.528-.352.872-.84 1.032-1.464.176-.624.264-1.336.264-2.136V29.2l.048-.432-.048-.048c-.32.4-.816.76-1.488 1.08-.656.32-1.464.48-2.424.48-1.52 0-2.704-.256-3.552-.768-.832-.512-1.416-1.208-1.752-2.088-.32-.88-.48-1.872-.48-2.976 0-1.12.16-2.12.48-3 .336-.88.92-1.576 1.752-2.088.848-.528 2.032-.792 3.552-.792.96 0 1.76.128 2.4.384.64.256 1.144.584 1.512.984l.048-.024-.048-.456v-.648h2.928c-.112.016-.224.136-.336.36-.096.224-.144.6-.144 1.128v9.192c0 2.32-.496 3.968-1.488 4.944-.976.976-2.488 1.464-4.536 1.464zm-.168-7.32c.992 0 1.76-.152 2.304-.456.544-.32.92-.784 1.128-1.392.208-.624.312-1.384.312-2.28 0-.88-.112-1.632-.336-2.256a2.605 2.605 0 00-1.128-1.44c-.528-.336-1.288-.504-2.28-.504-1.344 0-2.272.384-2.784 1.152-.496.768-.744 1.792-.744 3.072s.248 2.288.744 3.024c.496.72 1.424 1.08 2.784 1.08zm10.448-12.072c-.464 0-.824-.128-1.08-.384a1.327 1.327 0 01-.384-.936c0-.368.12-.68.36-.936.256-.256.624-.384 1.104-.384.48 0 .84.128 1.08.384.256.256.384.568.384.936 0 .352-.128.664-.384.936-.256.256-.616.384-1.08.384zM107.82 30.04c.112 0 .216-.112.312-.336.112-.224.168-.592.168-1.104v-8.352c0-.512-.056-.872-.168-1.08-.096-.224-.2-.344-.312-.36h2.928V28.6c0 .512.048.88.144 1.104.112.224.224.336.336.336h-3.408zm10.141.24c-1.104 0-1.904-.232-2.4-.696-.496-.48-.744-1.256-.744-2.328v-6.768h-2.16v-1.68c.736 0 1.312-.088 1.728-.264.416-.192.712-.52.888-.984.176-.464.264-1.112.264-1.944h1.728v3.192h4.584c-.112.16-.224.4-.336.72a3.17 3.17 0 00-.144.96h-4.104v6.408c0 .736.136 1.2.408 1.392.272.192.616.288 1.032.288.592 0 1.128-.176 1.608-.528.48-.352.824-.696 1.032-1.032v.744l.24 1.368c-.24.256-.672.512-1.296.768s-1.4.384-2.328.384zm9.818 0c-1.744 0-2.968-.312-3.672-.936-.704-.64-1.056-1.496-1.056-2.568 0-1.12.424-2 1.272-2.64.848-.64 2.144-.96 3.888-.96 1.248 0 2.248.128 3 .384.752.24 1.256.448 1.512.624-.016-1.424-.288-2.432-.816-3.024-.512-.608-1.424-.912-2.736-.912-.944 0-1.792.112-2.544.336-.736.208-1.328.44-1.776.696-.448.24-.728.416-.84.528v-.48l-.24-1.8c.144-.064.456-.168.936-.312.48-.16 1.112-.304 1.896-.432.784-.144 1.704-.216 2.76-.216 2.016 0 3.488.432 4.416 1.296.928.848 1.392 2.16 1.392 3.936v4.8c0 .448.048.776.144.984.112.192.224.344.336.456h-2.928v-.72l.048-.456-.048-.024c-.528.48-1.216.84-2.064 1.08-.848.24-1.808.36-2.88.36zm.792-1.704c1.296 0 2.312-.184 3.048-.552.736-.384 1.104-.864 1.104-1.44 0-.48-.32-.888-.96-1.224-.624-.336-1.6-.504-2.928-.504-1.232 0-2.104.16-2.616.48-.496.32-.744.8-.744 1.44 0 .624.24 1.08.72 1.368.496.288 1.288.432 2.376.432zm9.492 1.464c.112 0 .224-.112.336-.336.112-.224.168-.592.168-1.104V17.08c0-.512-.056-.872-.168-1.08-.112-.224-.224-.344-.336-.36h3.696c-.112 0-.224.112-.336.336-.112.224-.168.6-.168 1.128v10.248c0 .352.04.568.12.648.096.064.384.096.864.096h6.072c.928 0 1.672-.104 2.232-.312.576-.224.952-.44 1.128-.648l-.48 2.4v.504h-13.128zm21.046 0c.112 0 .224-.112.336-.336.112-.224.168-.592.168-1.104V17.08c0-.512-.056-.872-.168-1.08-.112-.224-.224-.344-.336-.36h13.512v.48l.48 2.304c-.4-.176-1.104-.36-2.112-.552-1.008-.208-2.224-.312-3.648-.312h-4.056c-.48 0-.768.04-.864.12-.08.064-.12.264-.12.6v2.736c0 .352.04.56.12.624.096.064.376.096.84.096h3.96c.928 0 1.672-.048 2.232-.144.576-.112.952-.224 1.128-.336a10.21 10.21 0 00-.336 1.176 6.137 6.137 0 00-.144 1.224h-6.84c-.464 0-.744.032-.84.096-.08.048-.12.256-.12.624V28.6c0 .528.056.904.168 1.128.112.208.224.312.336.312h-3.696zm15.674 0c.112 0 .216-.112.312-.336.112-.224.168-.592.168-1.104V14.92c0-.512-.056-.872-.168-1.08-.096-.224-.2-.344-.312-.36.704 0 1.312-.048 1.824-.144.528-.112.896-.224 1.104-.336v15.6c0 .512.048.88.144 1.104.112.224.224.336.336.336h-3.408zm11.645.24c-1.6 0-2.856-.256-3.768-.768-.896-.512-1.528-1.208-1.896-2.088-.352-.88-.528-1.872-.528-2.976 0-1.12.184-2.12.552-3 .384-.88 1.024-1.576 1.92-2.088.896-.528 2.136-.792 3.72-.792s2.824.264 3.72.792c.896.512 1.528 1.208 1.896 2.088.384.88.576 1.88.576 3 0 1.104-.184 2.096-.552 2.976-.352.88-.976 1.576-1.872 2.088-.896.512-2.152.768-3.768.768zm0-1.704c.992 0 1.76-.16 2.304-.48.544-.32.92-.784 1.128-1.392.208-.624.312-1.376.312-2.256 0-.88-.112-1.632-.336-2.256a2.605 2.605 0 00-1.128-1.44c-.528-.336-1.288-.504-2.28-.504-.976 0-1.736.176-2.28.528-.544.336-.928.824-1.152 1.464-.208.624-.312 1.368-.312 2.232 0 .848.104 1.584.312 2.208.208.608.584 1.08 1.128 1.416.544.32 1.312.48 2.304.48zm11.224 1.464c.112 0 .184-.104.216-.312.048-.224-.024-.6-.216-1.128-.08-.208-.232-.576-.456-1.104-.224-.528-.488-1.136-.792-1.824a60.053 60.053 0 00-.912-2.112c-.32-.72-.616-1.368-.888-1.944a20.987 20.987 0 00-.648-1.32c-.272-.512-.52-.88-.744-1.104-.224-.24-.384-.368-.48-.384h3.912c-.144 0-.24.112-.288.336-.048.224.048.608.288 1.152.128.272.304.688.528 1.248.224.544.472 1.176.744 1.896a151.785 151.785 0 011.656 4.224h.024c.24-.656.496-1.352.768-2.088.272-.752.536-1.488.792-2.208.272-.72.512-1.352.72-1.896.208-.56.368-.968.48-1.224.224-.512.312-.88.264-1.104-.048-.224-.136-.336-.264-.336h3.84c-.144 0-.24.112-.288.336-.048.224.048.608.288 1.152.128.272.296.688.504 1.248.224.544.464 1.176.72 1.896a157.135 157.135 0 011.56 4.224h.024l.864-2.088c.304-.752.608-1.488.912-2.208.304-.72.568-1.352.792-1.896.24-.56.416-.968.528-1.224.224-.512.312-.88.264-1.104-.048-.224-.136-.336-.264-.336h3.768c-.096 0-.248.112-.456.336-.192.208-.416.568-.672 1.08-.144.272-.352.688-.624 1.248s-.576 1.192-.912 1.896c-.336.688-.664 1.376-.984 2.064-.32.688-.6 1.32-.84 1.896-.24.56-.4.984-.48 1.272-.144.528-.2.904-.168 1.128.032.208.088.312.168.312h-3.84c.112 0 .184-.104.216-.312.048-.224-.024-.6-.216-1.128a38.28 38.28 0 00-.36-.984l-.696-1.848-.84-2.28c-.288-.784-.568-1.528-.84-2.232h-.072c-.256.672-.536 1.392-.84 2.16-.304.752-.592 1.488-.864 2.208a68.848 68.848 0 00-.696 1.872c-.192.528-.312.896-.36 1.104-.144.528-.2.904-.168 1.128.032.208.088.312.168.312h-3.84z" fill="#000"/><defs><clipPath id="clip0_73_81"><path fill="#fff" d="M0 0h55v49H0z"/></clipPath></defs></svg>