<svg width="30" height="30" viewBox="0 0 30 30" fill="none" xmlns="http://www.w3.org/2000/svg">
<path d="M28.5 25.5H15.2143C14.3863 25.5 13.7143 26.172 13.7143 27C13.7143 27.828 14.3863 28.5 15.2143 28.5H28.5C29.328 28.5 30 27.828 30 26.9999C30 26.172 29.328 25.5 28.5 25.5ZM1.5 4.49996H28.5C29.328 4.49996 30 3.82799 30 2.99995C30 2.17192 29.328 1.49995 28.5 1.49995H1.5C0.67201 1.5 0 2.17196 0 3C0 3.82799 0.67201 4.49996 1.5 4.49996ZM28.5 13.5H8.14286C7.31487 13.5 6.64286 14.172 6.64286 15C6.64286 15.828 7.31487 16.5 8.14286 16.5H28.5C29.328 16.5 30 15.828 30 15C30 14.172 29.328 13.5 28.5 13.5Z" fill="#212733"/>
</svg>
