<svg width="29" height="29" viewBox="0 0 29 29" fill="none" xmlns="http://www.w3.org/2000/svg">
<path d="M14.5002 12.619L6.43418 4.55327C5.90952 4.02837 5.06122 4.02837 4.53656 4.55327C4.0119 5.07793 4.0119 5.92624 4.53656 6.4509L12.6025 14.5169L4.53656 22.5826C4.0119 23.1075 4.0119 23.9556 4.53656 24.4803C5.06122 25.0052 5.90952 25.0052 6.43418 24.4803L14.5002 16.4145L22.5661 24.4803C23.0908 25.0052 23.9391 25.0052 24.4638 24.4803C24.7255 24.2188 24.8569 23.875 24.8569 23.5314C24.8569 23.1879 24.7255 22.8444 24.4638 22.5826L16.3978 14.5169L24.4638 6.4509C24.7255 6.18918 24.8569 5.84564 24.8569 5.50209C24.8569 5.15854 24.7255 4.81499 24.4637 4.55328C23.9391 4.02837 23.0908 4.02837 22.5661 4.55328L14.5002 12.619Z" fill="white" fill-opacity="0.3"/>
</svg>
