<svg width="30" height="30" viewBox="0 0 30 30" fill="none" xmlns="http://www.w3.org/2000/svg">
<rect width="30" height="30" rx="5" fill="white"/>
<g clip-path="url(#clip0_36_49)">
<path d="M17.5418 9.16665C18.3557 9.32545 19.1038 9.72353 19.6902 10.3099C20.2766 10.8963 20.6746 11.6444 20.8334 12.4583M17.5418 5.83331C19.2328 6.02118 20.8098 6.77846 22.0136 7.98082C23.2175 9.18318 23.9768 10.7592 24.1668 12.45M23.3334 19.1V21.6C23.3344 21.8321 23.2868 22.0618 23.1939 22.2744C23.1009 22.4871 22.9645 22.678 22.7935 22.8349C22.6225 22.9918 22.4206 23.1112 22.2007 23.1856C21.9809 23.2599 21.7479 23.2875 21.5168 23.2666C18.9525 22.988 16.4893 22.1118 14.3251 20.7083C12.3116 19.4289 10.6046 17.7218 9.32511 15.7083C7.91676 13.5343 7.04031 11.0591 6.76677 8.48331C6.74595 8.25287 6.77334 8.02061 6.84719 7.80133C6.92105 7.58205 7.03975 7.38055 7.19575 7.20966C7.35174 7.03877 7.54161 6.90224 7.75327 6.80875C7.96492 6.71526 8.19372 6.66686 8.42511 6.66665H10.9251C11.3295 6.66267 11.7216 6.80588 12.0282 7.06959C12.3349 7.3333 12.5352 7.69952 12.5918 8.09998C12.6973 8.90003 12.893 9.68559 13.1751 10.4416C13.2872 10.7399 13.3115 11.0641 13.245 11.3757C13.1786 11.6874 13.0242 11.9734 12.8001 12.2L11.7418 13.2583C12.9281 15.3446 14.6555 17.072 16.7418 18.2583L17.8001 17.2C18.0267 16.9759 18.3127 16.8215 18.6244 16.7551C18.936 16.6886 19.2602 16.7129 19.5584 16.825C20.3145 17.1071 21.1001 17.3028 21.9001 17.4083C22.3049 17.4654 22.6746 17.6693 22.9389 17.9812C23.2032 18.2931 23.3436 18.6913 23.3334 19.1Z" stroke="#17181C" stroke-width="2" stroke-linecap="round" stroke-linejoin="round"/>
</g>
<defs>
<clipPath id="clip0_36_49">
<rect width="20" height="20" fill="white" transform="translate(5 5)"/>
</clipPath>
</defs>
</svg>
