<svg width="30" height="30" viewBox="0 0 30 30" fill="none" xmlns="http://www.w3.org/2000/svg">
<rect width="30" height="30" rx="5" fill="white"/>
<g clip-path="url(#clip0_36_37)">
<path d="M21.5958 15.8568C21.2725 15.4485 21.365 15.2668 21.5958 14.9018C21.6 14.8976 24.2692 11.2093 24.5442 9.95848L24.5458 9.95764C24.6825 9.50181 24.5458 9.16681 23.885 9.16681H21.6983C21.1417 9.16681 20.885 9.45431 20.7475 9.77598C20.7475 9.77598 19.6342 12.441 18.0592 14.1685C17.5508 14.6676 17.3158 14.8276 17.0383 14.8276C16.9017 14.8276 16.6892 14.6676 16.6892 14.2118V9.95764C16.6892 9.41098 16.5333 9.16681 16.0725 9.16681H12.6342C12.285 9.16681 12.0775 9.42181 12.0775 9.65931C12.0775 10.1776 12.865 10.2968 12.9467 11.7551V14.9193C12.9467 15.6126 12.8208 15.7401 12.5417 15.7401C11.7983 15.7401 9.99417 13.0643 8.925 10.0018C8.70917 9.40764 8.49833 9.16764 7.9375 9.16764H5.75C5.12583 9.16764 5 9.45514 5 9.77681C5 10.3451 5.74333 13.171 8.45667 16.9043C10.265 19.4526 12.8117 20.8335 15.1283 20.8335C16.5208 20.8335 16.6908 20.5268 16.6908 19.9993C16.6908 17.5643 16.565 17.3343 17.2625 17.3343C17.5858 17.3343 18.1425 17.4943 19.4425 18.7235C20.9283 20.181 21.1725 20.8335 22.0042 20.8335H24.1908C24.8142 20.8335 25.13 20.5268 24.9483 19.9218C24.5325 18.6493 21.7225 16.0318 21.5958 15.8568Z" fill="#17181C"/>
</g>
<defs>
<clipPath id="clip0_36_37">
<rect width="20" height="20" fill="white" transform="translate(5 5)"/>
</clipPath>
</defs>
</svg>
